<svg data-v-423bf9ae="" xmlns="http://www.w3.org/2000/svg" viewBox="0 0 483 90" class="iconLeft"><!----><!----><!----><g data-v-423bf9ae="" id="b2bb80b8-590e-4ea4-9a05-e65596da1fc8" fill="white" transform="matrix(5.504587348608571,0,0,5.504587348608571,171.7331305377239,1.6788991500748907)"><path d="M7.39 8.35L8.11 9.29Q8.56 8.53 8.56 7.55L8.56 7.55Q8.56 6.18 7.70 5.26Q6.85 4.33 5.48 4.33L5.48 4.33Q4.12 4.33 3.26 5.26Q2.41 6.18 2.41 7.55L2.41 7.55Q2.41 8.91 3.26 9.84Q4.12 10.76 5.49 10.76L5.49 10.76Q6.06 10.76 6.54 10.60L6.54 10.60L5.76 9.60L7.39 8.35ZM8.63 13.32L7.76 12.19Q6.74 12.67 5.48 12.67L5.48 12.67Q3.29 12.67 1.83 11.20Q0.36 9.73 0.36 7.55L0.36 7.55Q0.36 5.36 1.83 3.89Q3.29 2.42 5.48 2.42L5.48 2.42Q7.67 2.42 9.14 3.89Q10.61 5.36 10.61 7.55L10.61 7.55Q10.61 9.54 9.39 10.94L9.39 10.94L10.26 12.07L8.63 13.32ZM16.10 10.25L16.10 10.25L16.10 5.83L18.01 5.83L18.01 12.67L16.10 12.67L16.10 12.05Q15.41 12.67 14.46 12.67L14.46 12.67Q13.16 12.67 12.48 11.88Q11.79 11.09 11.79 10.07L11.79 10.07L11.79 5.83L13.71 5.83L13.71 9.59Q13.71 10.27 14.05 10.65Q14.39 11.03 15.08 11.05L15.08 11.05Q15.67 11.01 16.10 10.25ZM21.58 12.67L19.67 12.67L19.67 5.83L21.58 5.83L21.58 12.67ZM19.60 4.20L19.60 4.20Q19.60 4.61 19.87 4.88Q20.15 5.15 20.62 5.15L20.62 5.15Q21.10 5.15 21.38 4.88Q21.65 4.61 21.65 4.20L21.65 4.20Q21.65 3.79 21.38 3.51Q21.10 3.23 20.61 3.23L20.61 3.23Q20.15 3.23 19.87 3.51Q19.60 3.79 19.60 4.20ZM28.61 11.06L28.61 12.67L23.15 12.67L23.15 12.22L25.99 7.46L23.15 7.46L23.15 5.85L28.61 5.85L28.61 6.35L25.76 11.06L28.61 11.06ZM35.53 11.06L35.53 12.67L30.07 12.67L30.07 12.22L32.92 7.46L30.07 7.46L30.07 5.85L35.53 5.85L35.53 6.35L32.68 11.06L35.53 11.06ZM37.98 7.82L37.23 6.66Q38.53 5.84 40.24 5.84L40.24 5.84Q41.47 5.84 42.18 6.52Q42.90 7.21 42.90 8.57L42.90 8.57L42.90 12.67L40.99 12.67L40.99 12.13Q40.15 12.67 39.48 12.67L39.48 12.67Q38.12 12.67 37.43 12.09Q36.75 11.51 36.75 10.49L36.75 10.49Q36.75 9.53 37.40 8.78Q38.04 8.03 39.48 8.03L39.48 8.03Q40.15 8.03 40.99 8.44L40.99 8.44L40.99 8.23Q40.97 7.48 39.89 7.41L39.89 7.41Q38.66 7.41 37.98 7.82L37.98 7.82ZM40.99 10.62L40.99 10.62L40.99 9.85Q40.71 9.32 39.69 9.32L39.69 9.32Q38.46 9.46 38.39 10.28L38.39 10.28Q38.46 11.09 39.69 11.16L39.69 11.16Q40.71 11.16 40.99 10.62ZM46.38 5.83L46.38 6.59Q47.11 5.84 48.16 5.84L48.16 5.84Q48.49 5.84 48.79 5.89L48.79 5.89L48.49 7.78Q48.16 7.48 47.54 7.46L47.54 7.46Q46.84 7.51 46.38 8.47L46.38 8.47L46.38 12.67L44.46 12.67L44.46 6.04L46.38 5.83ZM54.63 2.42L56.54 2.43L56.54 12.67L54.63 12.67L54.63 12.13Q53.86 12.67 53.12 12.67L53.12 12.67Q51.55 12.67 50.63 11.65Q49.70 10.62 49.70 9.26L49.70 9.26Q49.70 7.89 50.63 6.86Q51.55 5.84 53.12 5.84L53.12 5.84Q54.15 5.91 54.63 6.39L54.63 6.39L54.63 2.42ZM54.63 9.87L54.63 9.87L54.63 8.76Q54.49 7.62 53.19 7.42L53.19 7.42Q51.55 7.55 51.34 9.12L51.34 9.12Q51.41 11.03 53.19 11.10L53.19 11.10Q54.49 10.90 54.63 9.87Z"></path></g><!----><g data-v-423bf9ae="" id="4efcc503-1220-4491-9c5a-f1f27293af7d" transform="matrix(4.803586662404586,0,0,4.803586662404586,0.14261340152661717,-31.22538662899096)" stroke="none" fill="white"><path d="M16 19.586l7.496-12.954H8.504zM7.496 12.414L0 25.368h14.992zM24.504 12.414l-7.496 12.954H32z"></path></g><!----></svg>