<svg data-v-423bf9ae="" xmlns="http://www.w3.org/2000/svg" viewBox="0 0 478 90" class="iconLeft"><!----><!----><!----><g data-v-423bf9ae="" id="b058265f-f974-4007-a8ea-029df781cf44" fill="#0C203C" transform="matrix(5.571030897189742,0,0,5.571030897189742,170.98497113543533,-1.7688036626673735)"><path d="M10.15 8.61Q10.15 10.43 9.25 11.75L9.25 11.75L10.14 12.59L9.03 13.78L8.11 12.89Q6.87 13.71 5.32 13.71L5.32 13.71Q3.93 13.71 2.83 13.07Q1.74 12.43 1.11 11.28Q0.49 10.12 0.49 8.61L0.49 8.61Q0.49 7.10 1.11 5.94Q1.74 4.79 2.83 4.15Q3.93 3.51 5.32 3.51L5.32 3.51Q6.71 3.51 7.81 4.15Q8.90 4.79 9.53 5.94Q10.15 7.10 10.15 8.61L10.15 8.61ZM5.32 11.97Q6.17 11.97 6.78 11.63L6.78 11.63L5.61 10.53L6.72 9.34L7.90 10.46Q8.27 9.67 8.27 8.61L8.27 8.61Q8.27 7.10 7.51 6.17Q6.75 5.25 5.32 5.25L5.32 5.25Q3.89 5.25 3.13 6.17Q2.37 7.10 2.37 8.61L2.37 8.61Q2.37 10.12 3.13 11.05Q3.89 11.97 5.32 11.97L5.32 11.97ZM15.75 6.51L17.49 6.51L17.49 13.51L15.86 13.51L15.83 13.09Q15.51 13.33 15.09 13.49Q14.67 13.65 14.28 13.65L14.28 13.65Q12.73 13.65 12.02 12.75Q11.31 11.86 11.31 10.28L11.31 10.28L11.31 6.51L13.05 6.51L13.05 10.28Q13.05 11.26 13.38 11.72Q13.71 12.19 14.43 12.19L14.43 12.19Q15.25 12.19 15.75 11.61L15.75 11.61L15.75 6.51ZM19.11 5.45L19.11 3.71L20.85 3.71L20.85 5.45L19.11 5.45ZM19.11 13.51L19.11 6.51L20.85 6.51L20.85 13.51L19.11 13.51ZM24.63 12.04L28.06 12.04L28.06 13.51L21.91 13.51L25.31 7.98L22.23 7.98L22.23 6.51L28.03 6.51L24.63 12.04ZM31.23 12.04L34.66 12.04L34.66 13.51L28.52 13.51L31.92 7.98L28.84 7.98L28.84 6.51L34.64 6.51L31.23 12.04ZM35.69 5.45L35.69 3.71L37.42 3.71L37.42 5.45L35.69 5.45ZM35.69 13.51L35.69 6.51L37.42 6.51L37.42 13.51L35.69 13.51ZM42.29 13.65Q41.13 13.65 40.30 13.17Q39.47 12.68 39.05 11.86Q38.63 11.03 38.63 10.02L38.63 10.02Q38.63 9.00 39.05 8.17Q39.47 7.34 40.31 6.85Q41.15 6.37 42.35 6.37L42.35 6.37Q43.43 6.37 44.23 6.82L44.23 6.82L44.09 8.22Q43.33 7.83 42.52 7.83L42.52 7.83Q41.52 7.83 40.96 8.43Q40.40 9.03 40.40 10.02L40.40 10.02Q40.40 10.98 40.98 11.60Q41.55 12.22 42.50 12.22L42.50 12.22Q43.30 12.22 44.10 11.76L44.10 11.76L44.25 13.23Q43.88 13.43 43.37 13.54Q42.85 13.65 42.29 13.65L42.29 13.65ZM46.93 13.65Q46.06 13.65 45.48 13.08Q44.90 12.52 44.90 11.55L44.90 11.55Q44.90 10.64 45.56 10.09Q46.21 9.53 47.11 9.30Q48.01 9.07 48.83 9.04L48.83 9.04Q48.80 8.43 48.52 8.16Q48.23 7.90 47.57 7.90L47.57 7.90Q47.11 7.90 46.67 8.02Q46.23 8.15 45.65 8.43L45.65 8.43L45.50 7.01Q46.77 6.40 48.05 6.40L48.05 6.40Q49.28 6.40 49.93 7.07Q50.58 7.74 50.58 9.21L50.58 9.21L50.58 11.10Q50.58 11.63 50.63 11.87Q50.68 12.10 50.80 12.16Q50.92 12.22 51.20 12.22L51.20 12.22L51.42 12.22L51.27 13.65L50.64 13.65Q50.06 13.65 49.67 13.43Q49.28 13.22 49.07 12.84L49.07 12.84Q48.73 13.22 48.15 13.43Q47.57 13.65 46.93 13.65L46.93 13.65ZM47.66 12.32Q47.92 12.32 48.26 12.19Q48.59 12.05 48.85 11.82L48.85 11.82L48.85 10.22Q48.01 10.26 47.36 10.58Q46.72 10.91 46.72 11.48L46.72 11.48Q46.72 11.91 46.94 12.12Q47.17 12.32 47.66 12.32L47.66 12.32ZM54.18 13.65Q53.28 13.65 52.84 13.14Q52.39 12.63 52.39 11.82L52.39 11.82L52.39 3.01L54.12 3.01L54.12 11.10Q54.12 11.66 54.19 11.89Q54.25 12.12 54.41 12.17Q54.57 12.22 54.96 12.22L54.96 12.22L54.81 13.65L54.18 13.65Z"></path></g><defs data-v-423bf9ae=""><linearGradient data-v-423bf9ae="" gradientTransform="rotate(25)" id="a9d86722-40ff-4476-8c5a-926857a87f1d" x1="0%" y1="0%" x2="100%" y2="0%"><stop data-v-423bf9ae="" offset="0%" style="stop-color: rgb(40, 139, 88); stop-opacity: 1;"></stop><stop data-v-423bf9ae="" offset="100%" style="stop-color: rgb(21, 34, 241); stop-opacity: 1;"></stop></linearGradient></defs><g data-v-423bf9ae="" id="a4903488-a96f-4f7c-8df4-5f964c6e6cc2" transform="matrix(4.803586662404586,0,0,4.803586662404586,0.14261340152661717,-31.22538662899096)" stroke="none" fill="url(#a9d86722-40ff-4476-8c5a-926857a87f1d)"><path d="M16 19.586l7.496-12.954H8.504zM7.496 12.414L0 25.368h14.992zM24.504 12.414l-7.496 12.954H32z"></path></g><!----></svg>